<svg xmlns="http://www.w3.org/2000/svg" viewBox="0 0 200 200">
  <!-- Background circle -->
  <circle cx="100" cy="100" r="90" fill="#1a1f2e"/>
  
  <!-- Hexagon frame -->
  <path d="M100 35 L145 57 L145 102 L100 124 L55 102 L55 57 Z" 
        fill="none" 
        stroke="#4a90e2" 
        stroke-width="4"/>
  
  <!-- Wave lines - moved up -->
  <path d="M70 70 Q85 78 100 70 T130 70" 
        fill="none" 
        stroke="#64b5f6" 
        stroke-width="3"/>
        
  <path d="M70 80 Q85 88 100 80 T130 80" 
        fill="none" 
        stroke="#64b5f6" 
        stroke-width="3"/>
        
  <path d="M70 90 Q85 98 100 90 T130 90" 
        fill="none" 
        stroke="#64b5f6" 
        stroke-width="3"/>
  
  <!-- Lab flask -->
  <path d="M85 55 L85 67 L75 92 Q75 100 100 100 Q125 100 125 92 L115 67 L115 55 Z" 
        fill="#4a90e2"
        stroke="#64b5f6"
        stroke-width="2"/>
  
  <!-- Text -->
  <text x="100" y="150" 
        font-family="Arial" 
        font-size="16" 
        fill="#ffffff" 
        text-anchor="middle"
        font-weight="bold">MENZIES</text>
  
  <text x="100" y="170" 
        font-family="Arial" 
        font-size="14" 
        fill="#64b5f6" 
        text-anchor="middle"
        font-weight="bold">LABORATORY</text>
</svg>